<?xml version="1.0" encoding="utf-8"?>
<!-- Generator: Adobe Illustrator 15.0.0, SVG Export Plug-In . SVG Version: 6.00 Build 0)  -->
<!DOCTYPE svg PUBLIC "-//W3C//DTD SVG 1.1//EN" "http://www.w3.org/Graphics/SVG/1.1/DTD/svg11.dtd">
<svg version="1.1" id="Layer_1" xmlns="http://www.w3.org/2000/svg" xmlns:xlink="http://www.w3.org/1999/xlink" x="0px" y="0px"
	 width="800px" height="600px" viewBox="0 0 800 600" enable-background="new 0 0 800 600" xml:space="preserve">
<g>
	<g>
		<path d="M261.73,366.565c-10.484,0-26.705,0.593-26.705,0.593v-3.956l4.154-0.396c6.924-0.593,10.484-1.582,10.484-5.34
			c0-3.166-4.945-14.045-7.913-20.969c-4.352-10.484-9.692-23.54-9.692-23.54s-6.924-0.197-22.749-0.197
			c-12.858,0-20.573,0.197-20.573,0.197s-6.923,16.221-8.11,19.188c-3.561,9.1-7.517,18.594-7.517,23.342
			c0,4.352,3.759,6.726,10.484,7.318l4.55,0.396v3.956c0,0-13.848-0.593-22.155-0.593c-6.726,0-18.001,0.593-18.001,0.593v-3.956
			l4.153-0.594c4.945-0.791,8.704-3.165,12.265-11.078c3.759-8.308,11.869-27.892,19.386-45.893
			c12.067-29.079,30.068-72.4,30.859-74.576h4.55c2.77,7.319,21.166,51.63,27.694,67.455c24.529,59.74,25.914,62.904,34.617,64.092
			l4.55,0.594v3.956C286.062,367.158,271.226,366.565,261.73,366.565z M210.101,260.536l-18.792,46.486h38.376L210.101,260.536z"/>
		<path d="M348.962,302.077c-3.759,0-3.956-3.957-6.33-6.132c-1.188-0.989-2.374-1.78-4.353-1.78
			c-4.945,0-9.099,7.714-13.648,21.364c0,12.066,0,30.464,0.197,37.585c0.198,7.517,3.561,8.308,14.045,9.298l7.715,0.791v3.956
			c0,0-22.354-0.396-30.266-0.396c-7.913,0-22.946,0.396-22.946,0.396v-3.956l6.726-0.791c6.132-0.792,7.319-2.176,7.517-9.298
			c0.198-10.089,0.198-15.825,0.198-25.716s0-16.022-0.198-25.716c-0.197-8.506-2.374-11.671-9.692-12.265l-4.945-0.396v-3.561
			c0,0,11.077-1.78,17.407-3.165c5.736-1.187,14.44-3.363,14.44-3.363s-0.197,14.045-0.197,25.716
			c1.385-4.352,5.736-13.847,11.868-19.781c4.748-4.748,9.693-5.935,14.243-5.935c6.527,0,10.88,5.144,10.88,8.704
			C361.622,292.582,355.094,302.077,348.962,302.077z"/>
	</g>
	<g>
		<path d="M408.505,368.938c-18.001,0-37.584-16.023-37.584-42.332c0-32.046,19.979-47.674,38.771-47.674
			c26.902,0,35.805,18.595,37.188,36.794c0,0-24.924-0.396-41.145-0.396c-7.319,0-18.793,0.197-18.793,0.197v1.582
			c0,25.519,14.44,40.157,33.233,40.157c12.857,0,22.946-8.11,26.111-10.88l2.176,3.561
			C439.364,358.257,425.913,368.938,408.505,368.938z M408.109,284.274c-16.418,0-20.572,19.583-20.771,25.518h41.344
			C428.683,298.517,423.539,284.274,408.109,284.274z"/>
		<path d="M536.886,366.763c-7.912,0-22.946,0.396-22.946,0.396v-3.956l6.726-0.791c6.132-0.792,7.121-1.979,7.517-9.298
			s0.396-11.077,0.396-20.968s-0.197-19.584-0.593-25.123c-0.594-10.88-8.11-17.21-18.001-17.21
			c-10.683,0-18.595,5.341-20.969,7.319c0,0-0.198,7.121-0.198,28.09c0,9.891,0,20.969,0.198,27.892
			c0.198,6.33,1.78,8.704,8.11,9.298l7.715,0.791v3.956c0,0-16.419-0.396-24.331-0.396c-7.913,0-22.946,0.396-22.946,0.396v-3.956
			l6.726-0.791c6.132-0.792,7.318-2.176,7.517-9.298c0.198-10.089,0.198-15.825,0.198-25.716s0-16.022-0.198-25.716
			c-0.198-8.506-2.374-11.671-9.693-12.265l-4.945-0.396v-3.561c0,0,11.078-1.78,17.408-3.165c5.736-1.187,14.44-3.363,14.44-3.363
			l-0.198,13.847c6.924-5.143,18.99-13.847,33.233-13.847c11.474,0,23.342,8.11,23.342,26.903c0,20.374-0.197,23.935-0.197,26.704
			c0,7.32,0,14.441,0.197,20.573c0.198,6.132,1.78,8.704,8.11,9.298l7.715,0.791v3.956
			C561.217,367.158,544.799,366.763,536.886,366.763z"/>
	</g>
	<g>
		<path d="M629.066,368.543c-8.902,0-12.66-10.88-12.66-10.88s-13.057,11.275-25.123,11.275c-10.682,0-21.957-9.891-21.957-21.363
			c0-13.254,13.451-21.562,25.518-25.123c10.88-3.165,20.969-3.363,20.969-3.363s0.396-11.275,0.396-18.396
			c0-11.275-6.33-16.814-13.451-16.814c-7.715,0-10.484,4.352-12.463,8.11c-3.561,6.924-6.33,9.495-11.473,9.495
			c-4.353,0-5.935-3.956-5.935-6.726c0-3.363,1.978-5.935,8.11-9.495c6.527-3.758,16.419-6.132,25.122-6.132
			c18.99,0,26.31,6.726,26.31,18.397c0,13.649-0.791,17.407-0.791,49.058c0,8.506,3.956,10.881,8.11,10.881
			c4.747,0,10.484-4.154,10.484-4.154l1.78,2.77C652.013,356.081,638.957,368.543,629.066,368.543z M598.998,326.408
			c-6.924,1.979-14.045,6.726-14.045,13.847c0,12.66,9.891,18.199,18.396,18.199c4.748,0,9.495-2.373,12.265-4.945l0.198-29.87
			C615.812,323.639,606.91,324.034,598.998,326.408z"/>
	</g>
</g>
</svg>
